<mxfile host="65bd71144e">
    <diagram id="nzM_sdFMAI_WRHULUOGO" name="Page-1">
        <mxGraphModel dx="1620" dy="1091" grid="1" gridSize="10" guides="1" tooltips="1" connect="1" arrows="1" fold="1" page="1" pageScale="1" pageWidth="827" pageHeight="1169" math="0" shadow="0">
            <root>
                <mxCell id="0"/>
                <mxCell id="1" parent="0"/>
                <mxCell id="4" value="World" style="swimlane;whiteSpace=wrap;html=1;rounded=1;dashed=1;swimlaneFillColor=default;" vertex="1" parent="1">
                    <mxGeometry x="70" y="100" width="1500" height="1280" as="geometry"/>
                </mxCell>
                <mxCell id="2" value="RavagePdf" style="swimlane;whiteSpace=wrap;html=1;dashed=1;swimlaneFillColor=default;rounded=1;arcSize=25;" vertex="1" parent="4">
                    <mxGeometry x="180" y="130" width="1160" height="1040" as="geometry"/>
                </mxCell>
                <mxCell id="9" style="edgeStyle=none;html=1;startArrow=classic;startFill=1;" edge="1" parent="2" source="5" target="6">
                    <mxGeometry relative="1" as="geometry"/>
                </mxCell>
                <mxCell id="5" value="CLI" style="rounded=0;whiteSpace=wrap;html=1;fillColor=#6a00ff;fontColor=#ffffff;strokeColor=#3700CC;" vertex="1" parent="2">
                    <mxGeometry x="30" y="70" width="120" height="60" as="geometry"/>
                </mxCell>
                <mxCell id="58" style="edgeStyle=none;html=1;startArrow=classic;startFill=1;" edge="1" parent="2" source="6" target="57">
                    <mxGeometry relative="1" as="geometry"/>
                </mxCell>
                <mxCell id="161" style="edgeStyle=none;html=1;startArrow=classic;startFill=1;endArrow=classic;endFill=1;" edge="1" parent="2" source="6" target="24">
                    <mxGeometry relative="1" as="geometry"/>
                </mxCell>
                <mxCell id="6" value="lib" style="rounded=0;whiteSpace=wrap;html=1;fillColor=#6a00ff;fontColor=#ffffff;strokeColor=#3700CC;" vertex="1" parent="2">
                    <mxGeometry x="43" y="230" width="120" height="60" as="geometry"/>
                </mxCell>
                <mxCell id="88" style="edgeStyle=none;html=1;startArrow=none;startFill=0;" edge="1" parent="2" source="13" target="20">
                    <mxGeometry relative="1" as="geometry"/>
                </mxCell>
                <mxCell id="109" style="edgeStyle=none;html=1;startArrow=none;startFill=0;endArrow=block;endFill=0;" edge="1" parent="2" source="13" target="84">
                    <mxGeometry relative="1" as="geometry"/>
                </mxCell>
                <mxCell id="13" value="PDF" style="rounded=0;whiteSpace=wrap;html=1;fillColor=#d80073;fontColor=#ffffff;strokeColor=#A50040;" vertex="1" parent="2">
                    <mxGeometry x="380" y="160" width="120" height="60" as="geometry"/>
                </mxCell>
                <mxCell id="97" style="edgeStyle=none;html=1;startArrow=none;startFill=0;" edge="1" parent="2" source="15" target="29">
                    <mxGeometry relative="1" as="geometry"/>
                </mxCell>
                <mxCell id="108" style="edgeStyle=none;html=1;startArrow=none;startFill=0;endArrow=block;endFill=0;" edge="1" parent="2" source="15" target="59">
                    <mxGeometry relative="1" as="geometry"/>
                </mxCell>
                <mxCell id="15" value="Components" style="rounded=0;whiteSpace=wrap;html=1;fillColor=#d80073;fontColor=#ffffff;strokeColor=#A50040;" vertex="1" parent="2">
                    <mxGeometry x="560" y="375" width="120" height="60" as="geometry"/>
                </mxCell>
                <mxCell id="110" style="edgeStyle=none;html=1;startArrow=none;startFill=0;endArrow=block;endFill=0;" edge="1" parent="2" source="17" target="20">
                    <mxGeometry relative="1" as="geometry"/>
                </mxCell>
                <mxCell id="17" value="PdfDoc" style="rounded=0;whiteSpace=wrap;html=1;fillColor=#d80073;fontColor=#ffffff;strokeColor=#A50040;" vertex="1" parent="2">
                    <mxGeometry x="690" y="80" width="120" height="60" as="geometry"/>
                </mxCell>
                <mxCell id="93" style="edgeStyle=none;html=1;startArrow=none;startFill=0;" edge="1" parent="2" source="20" target="74">
                    <mxGeometry relative="1" as="geometry"/>
                </mxCell>
                <mxCell id="160" style="edgeStyle=none;html=1;startArrow=none;startFill=0;endArrow=block;endFill=0;" edge="1" parent="2" source="20" target="49">
                    <mxGeometry relative="1" as="geometry"/>
                </mxCell>
                <mxCell id="20" value="PDFTemplates" style="rounded=0;whiteSpace=wrap;html=1;fillColor=#d80073;fontColor=#ffffff;strokeColor=#A50040;" vertex="1" parent="2">
                    <mxGeometry x="510" y="270" width="120" height="60" as="geometry"/>
                </mxCell>
                <mxCell id="79" style="edgeStyle=none;html=1;startArrow=none;startFill=0;" edge="1" parent="2" source="24" target="57">
                    <mxGeometry relative="1" as="geometry"/>
                </mxCell>
                <mxCell id="24" value="BuildEndpoint" style="rounded=0;whiteSpace=wrap;html=1;fillColor=#d80073;fontColor=#ffffff;strokeColor=#A50040;" vertex="1" parent="2">
                    <mxGeometry x="240" y="50" width="120" height="60" as="geometry"/>
                </mxCell>
                <mxCell id="101" style="edgeStyle=none;html=1;startArrow=none;startFill=0;endArrow=block;endFill=0;" edge="1" parent="2" source="29" target="59">
                    <mxGeometry relative="1" as="geometry"/>
                </mxCell>
                <mxCell id="29" value="Localization" style="rounded=0;whiteSpace=wrap;html=1;fillColor=#d80073;fontColor=#ffffff;strokeColor=#A50040;" vertex="1" parent="2">
                    <mxGeometry x="640" y="470" width="120" height="60" as="geometry"/>
                </mxCell>
                <mxCell id="103" style="edgeStyle=none;html=1;startArrow=none;startFill=0;endArrow=block;endFill=0;" edge="1" parent="2" source="37" target="59">
                    <mxGeometry relative="1" as="geometry"/>
                </mxCell>
                <mxCell id="37" value="Style" style="rounded=0;whiteSpace=wrap;html=1;fillColor=#d80073;fontColor=#ffffff;strokeColor=#A50040;" vertex="1" parent="2">
                    <mxGeometry x="720" y="670" width="120" height="60" as="geometry"/>
                </mxCell>
                <mxCell id="105" style="edgeStyle=none;html=1;startArrow=none;startFill=0;endArrow=block;endFill=0;" edge="1" parent="2" source="94" target="37">
                    <mxGeometry relative="1" as="geometry"/>
                </mxCell>
                <mxCell id="94" value="PDFStyle" style="rounded=0;whiteSpace=wrap;html=1;fillColor=#d80073;fontColor=#ffffff;strokeColor=#A50040;" vertex="1" parent="2">
                    <mxGeometry x="1010" y="530" width="120" height="60" as="geometry"/>
                </mxCell>
                <mxCell id="102" style="edgeStyle=none;html=1;startArrow=none;startFill=0;endArrow=block;endFill=0;" edge="1" parent="2" source="40" target="59">
                    <mxGeometry relative="1" as="geometry"/>
                </mxCell>
                <mxCell id="40" value="Structure" style="rounded=0;whiteSpace=wrap;html=1;fillColor=#d80073;fontColor=#ffffff;strokeColor=#A50040;" vertex="1" parent="2">
                    <mxGeometry x="710" y="570" width="120" height="60" as="geometry"/>
                </mxCell>
                <mxCell id="106" style="edgeStyle=none;html=1;startArrow=none;startFill=0;endArrow=block;endFill=0;" edge="1" parent="2" source="89" target="40">
                    <mxGeometry relative="1" as="geometry"/>
                </mxCell>
                <mxCell id="89" value="OpenAPIStructure" style="rounded=0;whiteSpace=wrap;html=1;fillColor=#d80073;fontColor=#ffffff;strokeColor=#A50040;" vertex="1" parent="2">
                    <mxGeometry x="860" y="440" width="120" height="60" as="geometry"/>
                </mxCell>
                <mxCell id="104" style="edgeStyle=none;html=1;startArrow=none;startFill=0;endArrow=block;endFill=0;" edge="1" parent="2" source="49" target="59">
                    <mxGeometry relative="1" as="geometry"/>
                </mxCell>
                <mxCell id="49" value="Templates" style="rounded=0;whiteSpace=wrap;html=1;fillColor=#d80073;fontColor=#ffffff;strokeColor=#A50040;" vertex="1" parent="2">
                    <mxGeometry x="370" y="375" width="120" height="60" as="geometry"/>
                </mxCell>
                <mxCell id="85" style="edgeStyle=none;html=1;startArrow=none;startFill=0;" edge="1" parent="2" source="57" target="84">
                    <mxGeometry relative="1" as="geometry"/>
                </mxCell>
                <mxCell id="157" style="edgeStyle=none;html=1;startArrow=none;startFill=0;endArrow=classic;endFill=1;" edge="1" parent="2" source="57" target="155">
                    <mxGeometry relative="1" as="geometry"/>
                </mxCell>
                <mxCell id="57" value="PackageManager" style="rounded=0;whiteSpace=wrap;html=1;fillColor=#d80073;fontColor=#ffffff;strokeColor=#A50040;" vertex="1" parent="2">
                    <mxGeometry x="94" y="420" width="120" height="60" as="geometry"/>
                </mxCell>
                <mxCell id="112" style="edgeStyle=none;html=1;startArrow=none;startFill=0;endArrow=block;endFill=0;" edge="1" parent="2" source="59" target="111">
                    <mxGeometry relative="1" as="geometry"/>
                </mxCell>
                <mxCell id="59" value="Modules" style="rounded=0;whiteSpace=wrap;html=1;fillColor=#d80073;fontColor=#ffffff;strokeColor=#A50040;" vertex="1" parent="2">
                    <mxGeometry x="410" y="540" width="120" height="60" as="geometry"/>
                </mxCell>
                <mxCell id="111" value="ModulesNode" style="rounded=0;whiteSpace=wrap;html=1;fillColor=#d80073;fontColor=#ffffff;strokeColor=#A50040;" vertex="1" parent="2">
                    <mxGeometry x="104" y="620" width="120" height="60" as="geometry"/>
                </mxCell>
                <mxCell id="156" style="edgeStyle=none;html=1;startArrow=none;startFill=0;endArrow=block;endFill=0;" edge="1" parent="2" source="155" target="111">
                    <mxGeometry relative="1" as="geometry"/>
                </mxCell>
                <mxCell id="155" value="ModulesComposite" style="rounded=0;whiteSpace=wrap;html=1;fillColor=#d80073;fontColor=#ffffff;strokeColor=#A50040;" vertex="1" parent="2">
                    <mxGeometry x="250" y="490" width="120" height="60" as="geometry"/>
                </mxCell>
                <mxCell id="91" style="edgeStyle=none;html=1;startArrow=none;startFill=0;" edge="1" parent="2" source="74" target="40">
                    <mxGeometry relative="1" as="geometry"/>
                </mxCell>
                <mxCell id="96" style="edgeStyle=none;html=1;startArrow=none;startFill=0;" edge="1" parent="2" source="74" target="94">
                    <mxGeometry relative="1" as="geometry"/>
                </mxCell>
                <mxCell id="107" style="edgeStyle=none;html=1;startArrow=none;startFill=0;endArrow=block;endFill=0;" edge="1" parent="2" source="74" target="15">
                    <mxGeometry relative="1" as="geometry"/>
                </mxCell>
                <mxCell id="74" value="PDFComponents" style="rounded=0;whiteSpace=wrap;html=1;fillColor=#d80073;fontColor=#ffffff;strokeColor=#A50040;" vertex="1" parent="2">
                    <mxGeometry x="800" y="200" width="120" height="60" as="geometry"/>
                </mxCell>
                <mxCell id="84" value="Extensions" style="rounded=0;whiteSpace=wrap;html=1;fillColor=#d80073;fontColor=#ffffff;strokeColor=#A50040;" vertex="1" parent="2">
                    <mxGeometry x="240" y="290" width="120" height="60" as="geometry"/>
                </mxCell>
                <mxCell id="175" style="edgeStyle=none;html=1;startArrow=none;startFill=0;endArrow=classic;endFill=1;" edge="1" parent="2" source="98" target="111">
                    <mxGeometry relative="1" as="geometry"/>
                </mxCell>
                <mxCell id="98" value="Config" style="rounded=0;whiteSpace=wrap;html=1;fillColor=#008a00;fontColor=#ffffff;strokeColor=#005700;" vertex="1" parent="2">
                    <mxGeometry x="40" y="530" width="120" height="60" as="geometry"/>
                </mxCell>
                <mxCell id="164" style="edgeStyle=none;html=1;startArrow=none;startFill=0;endArrow=block;endFill=0;" edge="1" parent="2" source="162" target="59">
                    <mxGeometry relative="1" as="geometry"/>
                </mxCell>
                <mxCell id="177" style="edgeStyle=none;html=1;startArrow=none;startFill=0;endArrow=classic;endFill=1;" edge="1" parent="2" source="162" target="172">
                    <mxGeometry relative="1" as="geometry"/>
                </mxCell>
                <mxCell id="162" value="TextComponent" style="rounded=0;whiteSpace=wrap;html=1;fillColor=#d80073;fontColor=#ffffff;strokeColor=#A50040;" vertex="1" parent="2">
                    <mxGeometry x="530" y="670" width="120" height="60" as="geometry"/>
                </mxCell>
                <mxCell id="166" style="edgeStyle=none;html=1;startArrow=none;startFill=0;endArrow=block;endFill=0;" edge="1" parent="2" source="165" target="162">
                    <mxGeometry relative="1" as="geometry"/>
                </mxCell>
                <mxCell id="165" value="Markdown" style="rounded=0;whiteSpace=wrap;html=1;fillColor=#d80073;fontColor=#ffffff;strokeColor=#A50040;" vertex="1" parent="2">
                    <mxGeometry x="587" y="810" width="120" height="60" as="geometry"/>
                </mxCell>
                <mxCell id="170" style="edgeStyle=none;html=1;startArrow=none;startFill=0;endArrow=block;endFill=0;" edge="1" parent="2" source="169" target="59">
                    <mxGeometry relative="1" as="geometry"/>
                </mxCell>
                <mxCell id="169" value="TextExtensions" style="rounded=0;whiteSpace=wrap;html=1;fillColor=#d80073;fontColor=#ffffff;strokeColor=#A50040;" vertex="1" parent="2">
                    <mxGeometry x="320" y="670" width="120" height="60" as="geometry"/>
                </mxCell>
                <mxCell id="174" style="edgeStyle=none;html=1;startArrow=none;startFill=0;endArrow=block;endFill=0;" edge="1" parent="2" source="171" target="169">
                    <mxGeometry relative="1" as="geometry"/>
                </mxCell>
                <mxCell id="171" value="TextExtensionsNode" style="rounded=0;whiteSpace=wrap;html=1;fillColor=#d80073;fontColor=#ffffff;strokeColor=#A50040;" vertex="1" parent="2">
                    <mxGeometry x="140" y="800" width="120" height="60" as="geometry"/>
                </mxCell>
                <mxCell id="173" style="edgeStyle=none;html=1;startArrow=none;startFill=0;endArrow=block;endFill=0;" edge="1" parent="2" source="172" target="169">
                    <mxGeometry relative="1" as="geometry"/>
                </mxCell>
                <mxCell id="172" value="TextExtensionsComposite" style="rounded=0;whiteSpace=wrap;html=1;fillColor=#d80073;fontColor=#ffffff;strokeColor=#A50040;" vertex="1" parent="2">
                    <mxGeometry x="340" y="780" width="150" height="60" as="geometry"/>
                </mxCell>
                <mxCell id="7" style="edgeStyle=none;html=1;startArrow=classic;startFill=1;" edge="1" parent="4" source="3" target="5">
                    <mxGeometry relative="1" as="geometry"/>
                </mxCell>
                <mxCell id="8" style="edgeStyle=none;html=1;startArrow=classic;startFill=1;" edge="1" parent="4" source="3" target="6">
                    <mxGeometry relative="1" as="geometry"/>
                </mxCell>
                <mxCell id="3" value="User" style="shape=umlActor;verticalLabelPosition=bottom;verticalAlign=top;html=1;outlineConnect=0;rounded=1;" vertex="1" parent="4">
                    <mxGeometry x="80" y="210" width="30" height="60" as="geometry"/>
                </mxCell>
            </root>
        </mxGraphModel>
    </diagram>
</mxfile>